<?xml version="1.0" encoding="UTF-8" standalone="no"?>
<!DOCTYPE svg PUBLIC "-//W3C//DTD SVG 1.1//EN"
 "http://www.w3.org/Graphics/SVG/1.1/DTD/svg11.dtd">
<!-- Generated by graphviz version 2.47.0 (20210316.0004)
 -->
<!-- Title: dependencies Pages: 1 -->
<svg width="504pt" height="211pt"
 viewBox="0.00 0.00 504.00 211.00" xmlns="http://www.w3.org/2000/svg" xmlns:xlink="http://www.w3.org/1999/xlink">
<g id="graph0" class="graph" transform="scale(1 1) rotate(0) translate(4 207)">
<title>dependencies</title>
<polygon fill="white" stroke="transparent" points="-4,4 -4,-207 500,-207 500,4 -4,4"/>
<text text-anchor="start" x="227.01" y="-42.4" font-family="Times-12" font-weight="bold" font-size="14.00">Legend</text>
<polygon fill="#ffffb3" stroke="transparent" points="14,-10 14,-30 34,-30 34,-10 14,-10"/>
<text text-anchor="start" x="37.63" y="-15.4" font-family="Times-12" font-size="14.00"> &#160;Declarations</text>
<polygon fill="#8dd3c7" stroke="transparent" points="127,-10 127,-30 147,-30 147,-10 127,-10"/>
<text text-anchor="start" x="150.73" y="-15.4" font-family="Times-12" font-size="14.00"> &#160;Module</text>
<polygon fill="#80b1d3" stroke="transparent" points="213,-10 213,-30 233,-30 233,-10 213,-10"/>
<text text-anchor="start" x="236.78" y="-15.4" font-family="Times-12" font-size="14.00"> &#160;Bootstrap</text>
<polygon fill="#fdb462" stroke="transparent" points="310,-10 310,-30 330,-30 330,-10 310,-10"/>
<text text-anchor="start" x="333.67" y="-15.4" font-family="Times-12" font-size="14.00"> &#160;Providers</text>
<polygon fill="#fb8072" stroke="transparent" points="406,-10 406,-30 426,-30 426,-10 406,-10"/>
<text text-anchor="start" x="429.73" y="-15.4" font-family="Times-12" font-size="14.00"> &#160;Exports</text>
<g id="clust1" class="cluster">
<title>cluster_AppModule</title>
<polygon fill="none" stroke="black" stroke-dasharray="1,5" points="113,-70 113,-195 383,-195 383,-70 113,-70"/>
</g>
<g id="clust3" class="cluster">
<title>cluster_AppModule_imports</title>
<polygon fill="none" stroke="black" points="259,-78 259,-130 375,-130 375,-78 259,-78"/>
</g>
<g id="clust6" class="cluster">
<title>cluster_AppModule_providers</title>
<polygon fill="none" stroke="black" points="121,-78 121,-130 251,-130 251,-78 121,-78"/>
</g>
<!-- BundleModule -->
<g id="node1" class="node">
<title>BundleModule</title>
<polygon fill="#8dd3c7" stroke="black" points="366.99,-122 363.99,-126 342.99,-126 339.99,-122 267.01,-122 267.01,-86 366.99,-86 366.99,-122"/>
<text text-anchor="middle" x="317" y="-99.8" font-family="Times,serif" font-size="14.00">BundleModule</text>
</g>
<!-- AppModule -->
<g id="node2" class="node">
<title>AppModule</title>
<polygon fill="#8dd3c7" stroke="black" points="292.66,-187 289.66,-191 268.66,-191 265.66,-187 209.34,-187 209.34,-151 292.66,-151 292.66,-187"/>
<text text-anchor="middle" x="251" y="-164.8" font-family="Times,serif" font-size="14.00">AppModule</text>
</g>
<!-- BundleModule&#45;&gt;AppModule -->
<g id="edge1" class="edge">
<title>BundleModule&#45;&gt;AppModule</title>
<path fill="none" stroke="black" d="M279.92,-122.11C279.92,-122.11 279.92,-140.99 279.92,-140.99"/>
<polygon fill="black" stroke="black" points="276.42,-140.99 279.92,-150.99 283.42,-140.99 276.42,-140.99"/>
</g>
<!-- AppService -->
<g id="node3" class="node">
<title>AppService</title>
<ellipse fill="#fdb462" stroke="black" cx="186" cy="-104" rx="56.74" ry="18"/>
<text text-anchor="middle" x="186" y="-99.8" font-family="Times,serif" font-size="14.00">AppService</text>
</g>
<!-- AppService&#45;&gt;AppModule -->
<g id="edge2" class="edge">
<title>AppService&#45;&gt;AppModule</title>
<path fill="none" stroke="black" d="M225.9,-116.84C225.9,-116.84 225.9,-140.52 225.9,-140.52"/>
<polygon fill="black" stroke="black" points="222.4,-140.52 225.9,-150.52 229.4,-140.52 222.4,-140.52"/>
</g>
</g>
</svg>
