<?xml version="1.0" encoding="UTF-8" standalone="no"?>
<!DOCTYPE svg PUBLIC "-//W3C//DTD SVG 1.1//EN"
 "http://www.w3.org/Graphics/SVG/1.1/DTD/svg11.dtd">
<!-- Generated by graphviz version 2.47.0 (20210316.0004)
 -->
<!-- Title: dependencies Pages: 1 -->
<svg width="504pt" height="287pt"
 viewBox="0.00 0.00 504.00 287.00" xmlns="http://www.w3.org/2000/svg" xmlns:xlink="http://www.w3.org/1999/xlink">
<g id="graph0" class="graph" transform="scale(1 1) rotate(0) translate(4 283)">
<title>dependencies</title>
<polygon fill="white" stroke="transparent" points="-4,4 -4,-283 500,-283 500,4 -4,4"/>
<text text-anchor="start" x="227.01" y="-42.4" font-family="Times-12" font-weight="bold" font-size="14.00">Legend</text>
<polygon fill="#ffffb3" stroke="transparent" points="14,-10 14,-30 34,-30 34,-10 14,-10"/>
<text text-anchor="start" x="37.63" y="-15.4" font-family="Times-12" font-size="14.00"> &#160;Declarations</text>
<polygon fill="#8dd3c7" stroke="transparent" points="127,-10 127,-30 147,-30 147,-10 127,-10"/>
<text text-anchor="start" x="150.73" y="-15.4" font-family="Times-12" font-size="14.00"> &#160;Module</text>
<polygon fill="#80b1d3" stroke="transparent" points="213,-10 213,-30 233,-30 233,-10 213,-10"/>
<text text-anchor="start" x="236.78" y="-15.4" font-family="Times-12" font-size="14.00"> &#160;Bootstrap</text>
<polygon fill="#fdb462" stroke="transparent" points="310,-10 310,-30 330,-30 330,-10 310,-10"/>
<text text-anchor="start" x="333.67" y="-15.4" font-family="Times-12" font-size="14.00"> &#160;Providers</text>
<polygon fill="#fb8072" stroke="transparent" points="406,-10 406,-30 426,-30 426,-10 406,-10"/>
<text text-anchor="start" x="429.73" y="-15.4" font-family="Times-12" font-size="14.00"> &#160;Exports</text>
<g id="clust1" class="cluster">
<title>cluster_AppModule</title>
<polygon fill="none" stroke="black" stroke-dasharray="1,5" points="104,-146 104,-271 374,-271 374,-146 104,-146"/>
</g>
<g id="clust3" class="cluster">
<title>cluster_AppModule_imports</title>
<polygon fill="none" stroke="black" points="250,-154 250,-206 366,-206 366,-154 250,-154"/>
</g>
<g id="clust6" class="cluster">
<title>cluster_AppModule_providers</title>
<polygon fill="none" stroke="black" points="112,-154 112,-206 242,-206 242,-154 112,-154"/>
</g>
<g id="clust7" class="cluster">
<title>cluster_BundleModule</title>
<polygon fill="none" stroke="black" stroke-dasharray="1,5" points="224,-70 224,-138 392,-138 392,-70 224,-70"/>
</g>
<g id="clust12" class="cluster">
<title>cluster_BundleModule_providers</title>
<polygon fill="none" stroke="black" points="232,-78 232,-130 384,-130 384,-78 232,-78"/>
</g>
<!-- BundleModule -->
<g id="node1" class="node">
<title>BundleModule</title>
<polygon fill="#8dd3c7" stroke="black" points="357.99,-198 354.99,-202 333.99,-202 330.99,-198 258.01,-198 258.01,-162 357.99,-162 357.99,-198"/>
<text text-anchor="middle" x="308" y="-175.8" font-family="Times,serif" font-size="14.00">BundleModule</text>
</g>
<!-- AppModule -->
<g id="node2" class="node">
<title>AppModule</title>
<polygon fill="#8dd3c7" stroke="black" points="283.66,-263 280.66,-267 259.66,-267 256.66,-263 200.34,-263 200.34,-227 283.66,-227 283.66,-263"/>
<text text-anchor="middle" x="242" y="-240.8" font-family="Times,serif" font-size="14.00">AppModule</text>
</g>
<!-- BundleModule&#45;&gt;AppModule -->
<g id="edge1" class="edge">
<title>BundleModule&#45;&gt;AppModule</title>
<path fill="none" stroke="black" d="M270.92,-198.11C270.92,-198.11 270.92,-216.99 270.92,-216.99"/>
<polygon fill="black" stroke="black" points="267.42,-216.99 270.92,-226.99 274.42,-216.99 267.42,-216.99"/>
</g>
<!-- AppService -->
<g id="node3" class="node">
<title>AppService</title>
<ellipse fill="#fdb462" stroke="black" cx="177" cy="-180" rx="56.74" ry="18"/>
<text text-anchor="middle" x="177" y="-175.8" font-family="Times,serif" font-size="14.00">AppService</text>
</g>
<!-- AppService&#45;&gt;AppModule -->
<g id="edge2" class="edge">
<title>AppService&#45;&gt;AppModule</title>
<path fill="none" stroke="black" d="M216.9,-192.84C216.9,-192.84 216.9,-216.52 216.9,-216.52"/>
<polygon fill="black" stroke="black" points="213.4,-216.52 216.9,-226.52 220.4,-216.52 213.4,-216.52"/>
</g>
<!-- BundleService -->
<g id="node4" class="node">
<title>BundleService</title>
<ellipse fill="#fdb462" stroke="black" cx="308" cy="-104" rx="67.78" ry="18"/>
<text text-anchor="middle" x="308" y="-99.8" font-family="Times,serif" font-size="14.00">BundleService</text>
</g>
<!-- BundleService&#45;&gt;BundleModule -->
<g id="edge3" class="edge">
<title>BundleService&#45;&gt;BundleModule</title>
<path fill="none" stroke="black" d="M308,-122.01C308,-122.01 308,-151.85 308,-151.85"/>
<polygon fill="black" stroke="black" points="304.5,-151.85 308,-161.85 311.5,-151.85 304.5,-151.85"/>
</g>
</g>
</svg>
